<svg xmlns="http://www.w3.org/2000/svg" width="24" height="24" viewBox="0 0 24 24"><defs><style>.a{fill:#d0d0d0;opacity:0;}.b{fill:red;stroke:red;}</style></defs><g transform="translate(-288 -244)"><rect class="a" width="24" height="24" transform="translate(288 244)"/><g transform="translate(290 233.741)"><g transform="translate(-0.001 12.617)"><path class="b" d="M139.361,103.1a.555.555,0,0,0-.587.587v4.228a.587.587,0,1,0,1.174,0v-4.228A.555.555,0,0,0,139.361,103.1Z" transform="translate(-129.408 -96.995)"/><path class="b" d="M139.714,210.3a.568.568,0,0,0-.822,0,.706.706,0,0,0-.117.47c0,.235,0,.352.117.47a.706.706,0,0,0,.47.117c.117,0,.352,0,.235-.117a.89.89,0,0,0,.235-.47C139.831,210.531,139.831,210.414,139.714,210.3Z" transform="translate(-129.408 -196.79)"/><path class="b" d="M19.465,26.24l-6.929-12.1a2.918,2.918,0,0,0-2.584-1.527,3.061,3.061,0,0,0-2.584,1.527L.44,26.24a2.866,2.866,0,0,0,0,3.053A2.918,2.918,0,0,0,3.023,30.82H16.881a2.789,2.789,0,0,0,2.584-1.527A2.866,2.866,0,0,0,19.465,26.24Zm-.94,2.584a1.573,1.573,0,0,1-1.527.94H3.023a1.833,1.833,0,0,1-1.527-.94,1.8,1.8,0,0,1,0-1.879l6.929-12.1a1.573,1.573,0,0,1,1.527-.94,1.874,1.874,0,0,1,1.644.94l6.929,12.1A1.8,1.8,0,0,1,18.526,28.824Z" transform="translate(0.001 -12.617)"/></g></g></g></svg>