<svg xmlns="http://www.w3.org/2000/svg" width="24" height="24" viewBox="0 0 24 24"><defs><style>.a{fill:#d0d0d0;opacity:0;}.b{fill:#1b70d3;stroke:#2770c5;}</style></defs><g transform="translate(-254 -244)"><rect class="a" width="24" height="24" transform="translate(254 244)"/><path class="b" d="M11176.225,9137.737h-7.661a1.738,1.738,0,0,1-1.5-.868l-3.83-6.634a1.74,1.74,0,0,1,0-1.734l3.83-6.634a1.738,1.738,0,0,1,1.5-.868h7.661a1.746,1.746,0,0,1,1.5.868l3.83,6.634a1.74,1.74,0,0,1,0,1.734l-3.83,6.634A1.746,1.746,0,0,1,11176.225,9137.737Zm-7.091-15.5a1.476,1.476,0,0,0-1.278.74l-3.263,5.647a1.487,1.487,0,0,0,0,1.477l3.263,5.647a1.478,1.478,0,0,0,1.278.74h6.521a1.483,1.483,0,0,0,1.279-.74l3.261-5.647a1.472,1.472,0,0,0,0-1.477l-3.261-5.647a1.481,1.481,0,0,0-1.279-.74Z" transform="translate(-10906.145 -8873.176)"/></g></svg>